Coordinates
version=1
nRows=5
nColumns=40
inDegrees=yes

Units are S.I. units (second, meters, Newtons, ...)
Angles are in degrees.

endheader
time	pelvis_tilt	pelvis_list	pelvis_rotation	pelvis_tx	pelvis_ty	pelvis_tz	hip_flexion_r	hip_adduction_r	hip_rotation_r	knee_angle_r	knee_angle_r_beta	ankle_angle_r	subtalar_angle_r	mtp_angle_r	hip_flexion_l	hip_adduction_l	hip_rotation_l	knee_angle_l	knee_angle_l_beta	ankle_angle_l	subtalar_angle_l	mtp_angle_l	lumbar_extension	lumbar_bending	lumbar_rotation	arm_flex_r	arm_add_r	arm_rot_r	elbow_flex_r	pro_sup_r	wrist_flex_r	wrist_dev_r	arm_flex_l	arm_add_l	arm_rot_l	elbow_flex_l	pro_sup_l	wrist_flex_l	wrist_dev_l
     27.08000000	     -3.37785189	     -4.36446378	     -5.76047310	      0.90841898	      0.92526829	      0.50101329	     16.40873593	      3.65942166	     -8.69760700	     22.94622900	     22.94622900	     12.10428804	      0.17153268	     -2.43236564	     17.92974701	    -10.67740855	     -3.92781896	     58.58807754	     58.58807754	      9.75339634	    -18.25606300	      8.89246290	    -10.08125296	      8.27165637	      0.54316089	     -5.16253775	    -17.18691429	    -20.10597636	     32.01689801	     46.41953406	      0.00000000	      0.00000000	     25.62530259	    -17.40015477	    -13.94934268	     71.60106135	     47.25779855	      0.00000000	      0.00000000
     27.09921429	     -3.10195231	     -4.34919830	     -5.04032909	      0.90718740	      0.92489892	      0.50321237	     16.04449531	      3.76778242	     -8.57751431	     23.45777589	     23.45777589	     12.60996300	     -1.10678970	     -2.48085594	     19.61671853	    -10.79361761	     -2.88114841	     60.25025290	     60.25025290	     10.27771414	    -18.75138442	     10.12525259	    -10.20662136	      7.96309952	      0.35343131	     -2.99582645	    -17.10181925	    -19.90834496	     32.56613565	     46.39715988	      0.00000000	      0.00000000	     23.85144132	    -16.69702264	    -13.02918220	     69.13415355	     47.15443516	      0.00000000	      0.00000000
     27.11842857	     -2.77061220	     -4.45261893	     -4.28119025	      0.90592711	      0.92449696	      0.50541728	     15.57570646	      4.00333320	     -8.57694054	     23.91608029	     23.91608029	     13.10928851	     -2.30830882	     -2.51644505	     21.25937715	    -11.03590336	     -1.86959522	     61.65607554	     61.65607554	     10.93763619	    -19.05998182	     11.39608982	    -10.47215705	      7.80036854	      0.36499246	     -0.89908032	    -17.14105492	    -19.70662697	     33.20616878	     46.37185964	      0.00000000	      0.00000000	     22.13939345	    -15.84454799	    -12.13285900	     66.83856107	     47.05135076	      0.00000000	      0.00000000
     27.13764286	     -2.40371682	     -4.36673107	     -3.55469754	      0.90457930	      0.92426596	      0.50745232	     15.08186706	      4.12571366	     -8.18468337	     24.33714594	     24.33714594	     13.56305736	     -3.96276869	     -2.27053199	     22.92877380	    -10.87079501	     -0.79575212	     62.83724241	     62.83724241	     13.24184814	    -19.21453644	     17.33564328	    -10.69247696	      7.39722419	      0.77977588	      1.18493995	    -17.28238443	    -18.83995252	     33.11601832	     46.32913802	      0.00000000	      0.00000000	     21.51561840	    -14.88516544	    -10.07371908	     61.82997203	     46.86882906	      0.00000000	      0.00000000
     27.15685714	     -2.13739667	     -4.32518988	     -2.79242639	      0.90317190	      0.92372202	      0.50936476	     14.73026443	      4.22449546	     -8.15155112	     24.83093173	     24.83093173	     14.02045708	     -5.17660893	     -2.23078554	     24.47880150	    -10.92651565	     -0.10985790	     63.18465184	     63.18465184	     13.97899110	    -19.37616273	     18.36541445	    -10.88577962	      7.04187108	      0.34555788	      3.52024806	    -17.08346070	    -18.65107674	     34.44251301	     46.27670710	      0.00000000	      0.00000000	     19.56993847	    -14.34039786	     -9.21391865	     58.92626435	     46.76416835	      0.00000000	      0.00000000
